<svg width="641" height="273" viewBox="0 0 641 273" fill="none" xmlns="http://www.w3.org/2000/svg">
<path d="M183.981 241.211L186.651 244.19L186.661 244.181L186.67 244.172L183.981 241.211ZM125.085 126.851H121.085V130.851H125.085V126.851ZM125.085 121.25V117.25H121.085V121.25H125.085ZM181.091 17.7295L183.704 14.7013L183.692 14.6909L183.68 14.6807L181.091 17.7295ZM69.4404 0.927734V-3.07227H65.4404V0.927734H69.4404ZM69.4404 260H65.4404V264H69.4404V260ZM125.085 41.7578V37.7578H121.085V41.7578H125.085ZM125.085 97.2217H121.085V101.222H125.085V97.2217ZM125.085 150.879V146.879H121.085V150.879H125.085ZM125.085 219.351H121.085V223.351H125.085V219.351ZM125.085 264C151.205 264 171.788 257.509 186.651 244.19L181.312 238.232C168.353 249.845 149.912 256 125.085 256V264ZM186.67 244.172C201.333 230.86 208.577 213.294 208.577 191.528H200.577C200.577 211.316 194.091 226.63 181.293 238.249L186.67 244.172ZM208.577 191.528C208.577 170.594 201.384 153.216 186.979 141.15C172.675 129.17 151.765 122.851 125.085 122.851V130.851C150.617 130.851 169.453 136.907 181.842 147.283C194.13 157.575 200.577 172.536 200.577 191.528H208.577ZM129.085 126.851V121.25H121.085V126.851H129.085ZM125.085 125.25C150.821 125.25 170.77 119.447 184.358 108.411C198.068 97.2762 204.783 81.2345 204.783 61.9922H196.783C196.783 79.244 190.852 92.8312 179.314 102.201C167.654 111.672 149.754 117.25 125.085 117.25V125.25ZM204.783 61.9922C204.783 42.6468 197.821 26.8842 183.704 14.7013L178.477 20.7577C190.738 31.3385 196.783 44.8435 196.783 61.9922H204.783ZM183.68 14.6807C169.529 2.66178 149.872 -3.07227 125.085 -3.07227V4.92773C148.716 4.92773 166.276 10.3949 178.501 20.7783L183.68 14.6807ZM125.085 -3.07227H69.4404V4.92773H125.085V-3.07227ZM65.4404 0.927734V260H73.4404V0.927734H65.4404ZM69.4404 264H125.085V256H69.4404V264ZM125.085 45.7578H126.892V37.7578H125.085V45.7578ZM126.892 45.7578C131.869 45.7578 135.145 47.5289 137.384 50.887C139.814 54.5314 141.319 60.5037 141.319 69.3994H149.319C149.319 59.8674 147.754 52.0189 144.041 46.4494C140.137 40.5937 134.199 37.7578 126.892 37.7578V45.7578ZM141.319 69.3994C141.319 78.3915 139.812 84.4105 137.379 88.0774C135.14 91.4528 131.867 93.2217 126.892 93.2217V101.222C134.202 101.222 140.142 98.3837 144.046 92.5C147.756 86.9078 149.319 79.0157 149.319 69.3994H141.319ZM126.892 93.2217H125.085V101.222H126.892V93.2217ZM129.085 97.2217V41.7578H121.085V97.2217H129.085ZM125.085 154.879H126.892V146.879H125.085V154.879ZM126.892 154.879C133.146 154.879 137.368 157.111 140.234 161.392C143.291 165.959 145.113 173.327 145.113 184.121H153.113C153.113 172.693 151.232 163.44 146.882 156.942C142.34 150.157 135.452 146.879 126.892 146.879V154.879ZM145.113 184.121C145.113 195.573 143.284 203.48 140.175 208.409C137.261 213.029 133.036 215.351 126.892 215.351V223.351C135.561 223.351 142.448 219.801 146.941 212.677C151.239 205.864 153.113 196.156 153.113 184.121H145.113ZM126.892 215.351H125.085V223.351H126.892V215.351ZM129.085 219.351V150.879H121.085V219.351H129.085ZM326.706 260V264H330.706V260H326.706ZM326.706 211.943H330.706V207.943H326.706V211.943ZM276.843 211.943H272.843V215.943H276.843V211.943ZM276.843 150.879V146.879H272.843V150.879H276.843ZM311.892 150.879V154.879H315.892V150.879H311.892ZM311.892 102.822H315.892V98.8223H311.892V102.822ZM276.843 102.822H272.843V106.822H276.843V102.822ZM276.843 49.165V45.165H272.843V49.165H276.843ZM326.706 49.165V53.165H330.706V49.165H326.706ZM326.706 0.927734H330.706V-3.07227H326.706V0.927734ZM221.198 0.927734V-3.07227H217.198V0.927734H221.198ZM221.198 260H217.198V264H221.198V260ZM330.706 260V211.943H322.706V260H330.706ZM326.706 207.943H276.843V215.943H326.706V207.943ZM280.843 211.943V150.879H272.843V211.943H280.843ZM276.843 154.879H311.892V146.879H276.843V154.879ZM315.892 150.879V102.822H307.892V150.879H315.892ZM311.892 98.8223H276.843V106.822H311.892V98.8223ZM280.843 102.822V49.165H272.843V102.822H280.843ZM276.843 53.165H326.706V45.165H276.843V53.165ZM330.706 49.165V0.927734H322.706V49.165H330.706ZM326.706 -3.07227H221.198V4.92773H326.706V-3.07227ZM217.198 0.927734V260H225.198V0.927734H217.198ZM221.198 264H326.706V256H221.198V264ZM448.835 260V264H452.835V260H448.835ZM448.835 211.943H452.835V207.943H448.835V211.943ZM398.972 211.943H394.972V215.943H398.972V211.943ZM398.972 150.879V146.879H394.972V150.879H398.972ZM434.021 150.879V154.879H438.021V150.879H434.021ZM434.021 102.822H438.021V98.8223H434.021V102.822ZM398.972 102.822H394.972V106.822H398.972V102.822ZM398.972 49.165V45.165H394.972V49.165H398.972ZM448.835 49.165V53.165H452.835V49.165H448.835ZM448.835 0.927734H452.835V-3.07227H448.835V0.927734ZM343.327 0.927734V-3.07227H339.327V0.927734H343.327ZM343.327 260H339.327V264H343.327V260ZM452.835 260V211.943H444.835V260H452.835ZM448.835 207.943H398.972V215.943H448.835V207.943ZM402.972 211.943V150.879H394.972V211.943H402.972ZM398.972 154.879H434.021V146.879H398.972V154.879ZM438.021 150.879V102.822H430.021V150.879H438.021ZM434.021 98.8223H398.972V106.822H434.021V98.8223ZM402.972 102.822V49.165H394.972V102.822H402.972ZM398.972 53.165H448.835V45.165H398.972V53.165ZM452.835 49.165V0.927734H444.835V49.165H452.835ZM448.835 -3.07227H343.327V4.92773H448.835V-3.07227ZM339.327 0.927734V260H347.327V0.927734H339.327ZM343.327 264H448.835V256H343.327V264ZM521.101 41.7578V37.7578H517.101V41.7578H521.101ZM521.101 104.629H517.101V108.629H521.101V104.629ZM521.101 260V264H525.101V260H521.101ZM521.101 158.286V154.286H517.101V158.286H521.101ZM602.399 260V264H606.399V260H602.399ZM602.399 256.387H606.399V253.72L603.938 252.694L602.399 256.387ZM600.231 255.483L598.443 259.061L598.566 259.123L598.693 259.176L600.231 255.483ZM521.101 134.258H517.101V138.258H521.101V134.258ZM521.101 128.657V124.657H517.101V128.657H521.101ZM465.456 0.927734V-3.07227H461.456V0.927734H465.456ZM465.456 260H461.456V264H465.456V260ZM521.101 45.7578H522.907V37.7578H521.101V45.7578ZM522.907 45.7578C525.003 45.7578 526.659 46.247 528.018 47.1049C529.392 47.9725 530.687 49.3599 531.816 51.4903C534.137 55.8672 535.528 62.9427 535.528 73.1934H543.528C543.528 62.487 542.119 53.8447 538.885 47.743C537.236 44.6343 535.064 42.0922 532.289 40.3401C529.498 38.5785 526.322 37.7578 522.907 37.7578V45.7578ZM535.528 73.1934C535.528 83.4441 534.137 90.5195 531.816 94.8964C530.687 97.0268 529.392 98.4143 528.018 99.2818C526.659 100.14 525.003 100.629 522.907 100.629V108.629C526.322 108.629 529.498 107.808 532.289 106.047C535.064 104.294 537.236 101.752 538.885 98.6437C542.119 92.542 543.528 83.8997 543.528 73.1934H535.528ZM522.907 100.629H521.101V108.629H522.907V100.629ZM525.101 104.629V41.7578H517.101V104.629H525.101ZM525.101 260V158.286H517.101V260H525.101ZM521.101 162.286C525.876 162.286 528.788 163.598 530.577 165.576C532.435 167.63 533.722 171.102 533.722 176.714H541.722C541.722 170.041 540.209 164.299 536.51 160.21C532.744 156.046 527.346 154.286 521.101 154.286V162.286ZM533.722 176.714V234.165H541.722V176.714H533.722ZM533.722 234.165C533.722 244.126 534.994 251.739 538.775 256.847C542.825 262.32 548.99 264 556.149 264V256C550.12 256 547.071 254.609 545.205 252.088C543.069 249.201 541.722 243.897 541.722 234.165H533.722ZM556.149 264H602.399V256H556.149V264ZM606.399 260V256.387H598.399V260H606.399ZM603.938 252.694L601.77 251.791L598.693 259.176L600.861 260.079L603.938 252.694ZM602.02 251.906C601.72 251.756 600.466 250.734 599.25 248.125C598.109 245.677 597.186 242.192 597.186 237.778H589.186C589.186 243.301 590.34 247.946 591.999 251.505C593.583 254.903 595.852 257.766 598.443 259.061L602.02 251.906ZM597.186 237.778V185.928H589.186V237.778H597.186ZM597.186 185.928C597.186 167.944 592.176 153.776 581.522 144.181C570.948 134.656 555.494 130.258 535.915 130.258V138.258C554.456 138.258 567.637 142.441 576.168 150.125C584.62 157.737 589.186 169.405 589.186 185.928H597.186ZM535.915 130.258H521.101V138.258H535.915V130.258ZM525.101 134.258V128.657H517.101V134.258H525.101ZM521.101 132.657C545.967 132.657 565.512 126.792 578.888 115.219C592.356 103.566 598.992 86.6303 598.992 65.7861H590.992C590.992 84.8687 584.982 99.3682 573.654 109.169C562.234 119.05 544.833 124.657 521.101 124.657V132.657ZM598.992 65.7861C598.992 45.1635 592.329 28.1232 578.543 15.5018L573.141 21.4025C585.009 32.2674 590.992 47.024 590.992 65.7861H598.992ZM578.543 15.5018C564.739 2.86453 545.387 -3.07227 521.101 -3.07227V4.92773C544.148 4.92773 561.29 10.5534 573.141 21.4025L578.543 15.5018ZM521.101 -3.07227H465.456V4.92773H521.101V-3.07227ZM461.456 0.927734V260H469.456V0.927734H461.456ZM465.456 264H521.101V256H465.456V264Z" fill="#E1DFD0"/>
<mask id="mask0_1_10" style="mask-type:alpha" maskUnits="userSpaceOnUse" x="49" y="0" width="534" height="260">
<path d="M105.085 260C130.559 260 150.07 253.677 163.981 241.211C177.712 228.745 184.577 212.305 184.577 191.528C184.577 151.602 157.297 126.851 105.085 126.851V121.25C155.49 121.25 180.783 98.4863 180.783 61.9922C180.783 43.7451 174.279 29.1113 161.091 17.7295C147.902 6.52832 129.294 0.927734 105.085 0.927734H49.4404V260H105.085ZM105.085 41.7578H106.892C119.177 41.7578 125.319 50.9717 125.319 69.3994C125.319 88.0078 119.177 97.2217 106.892 97.2217H105.085V41.7578ZM105.085 150.879H106.892C121.706 150.879 129.113 161.899 129.113 184.121C129.113 207.607 121.706 219.351 106.892 219.351H105.085V150.879ZM306.706 260V211.943H256.843V150.879H291.892V102.822H256.843V49.165H306.706V0.927734H201.198V260H306.706ZM428.835 260V211.943H378.972V150.879H414.021V102.822H378.972V49.165H428.835V0.927734H323.327V260H428.835ZM501.101 41.7578H502.907C513.928 41.7578 519.528 52.2363 519.528 73.1934C519.528 94.1504 513.928 104.629 502.907 104.629H501.101V41.7578ZM501.101 260V158.286C512.121 158.286 517.722 164.429 517.722 176.714V234.165C517.722 253.857 522.961 260 536.149 260H582.399V256.387L580.231 255.483C577.341 254.038 573.186 247.715 573.186 237.778V185.928C573.186 151.421 554.035 134.258 515.915 134.258H501.101V128.657C549.699 128.657 574.992 105.713 574.992 65.7861C574.992 46.0938 568.669 30.1953 555.842 18.4521C543.015 6.70898 524.768 0.927734 501.101 0.927734H445.456V260H501.101Z" fill="#F1F1F1"/>
</mask>
<g mask="url(#mask0_1_10)">
<path d="M113.5 117.795C90.7 109.795 78.6667 123.795 75.5 131.795L44 180.294L48 262.295L626 264.795L632.5 234.295C629.5 190.128 621.2 103.794 612 111.794C600.5 121.794 579.5 122.795 555 122.795C530.5 122.795 518 120.794 514 111.794C510 102.794 511.5 112.294 505 104.294C495.104 92.1154 500.5 108.795 493.5 117.795C486.5 126.795 455.5 122.795 420 108.795C384.5 94.7945 377.5 110.795 352.5 122.795C327.5 134.795 310 127.795 277 114.295C244 100.795 225.5 111.795 189 122.795C152.5 133.795 142 127.795 113.5 117.795Z" fill="#EFEDDD"/>
</g>
</svg>
